HIERARCHY
ROOT Hips
{
	OFFSET -0.001795 -0.223333 0.028219
	CHANNELS 6 Xposition Yposition Zposition Zrotation Yrotation Xrotation 
	JOINT LeftUpLeg
	{
		OFFSET 0.069520 -0.091406 -0.006815
		CHANNELS 3 Zrotation Yrotation Xrotation
		JOINT LeftLeg
		{
			OFFSET 0.034277 -0.375199 -0.004496
			CHANNELS 3 Zrotation Yrotation Xrotation
			JOINT LeftFoot
			{
				OFFSET -0.013596 -0.397961 -0.043693
				CHANNELS 3 Zrotation Yrotation Xrotation
				JOINT LeftToe
				{
					OFFSET 0.026358 -0.055791 0.119288
					CHANNELS 3 Zrotation Yrotation Xrotation
					End Site
					{
						OFFSET 0.000000 0.000000 0.000000
					}
				}
			}
		}
	}
	JOINT RightUpLeg
	{
		OFFSET -0.067670 -0.090522 -0.004320
		CHANNELS 3 Zrotation Yrotation Xrotation
		JOINT RightLeg
		{
			OFFSET -0.038290 -0.382569 -0.008850
			CHANNELS 3 Zrotation Yrotation Xrotation
			JOINT RightFoot
			{
				OFFSET 0.015774 -0.398415 -0.042312
				CHANNELS 3 Zrotation Yrotation Xrotation
				JOINT RightToe
				{
					OFFSET -0.025372 -0.048144 0.123348
					CHANNELS 3 Zrotation Yrotation Xrotation
					End Site
					{
						OFFSET 0.000000 0.000000 0.000000
					}
				}
			}
		}
	}
	JOINT Spine
	{
		OFFSET -0.002533 0.108963 -0.026696
		CHANNELS 3 Zrotation Yrotation Xrotation
		JOINT Spine1
		{
			OFFSET 0.005487 0.135180 0.001092
			CHANNELS 3 Zrotation Yrotation Xrotation
			JOINT Spine2
			{
				OFFSET 0.001457 0.052922 0.025425
				CHANNELS 3 Zrotation Yrotation Xrotation
				JOINT Neck
				{
					OFFSET -0.002778 0.213870 -0.042857
					CHANNELS 3 Zrotation Yrotation Xrotation
					JOINT Head
					{
						OFFSET 0.005152 0.064970 0.051349
						CHANNELS 3 Zrotation Yrotation Xrotation
						End Site
						{
							OFFSET 0.000000 0.000000 0.000000
						}
					}
				}
				JOINT LeftShoulder
				{
					OFFSET 0.078845 0.121749 -0.034090
					CHANNELS 3 Zrotation Yrotation Xrotation
					JOINT LeftArm
					{
						OFFSET 0.090977 0.030469 -0.008868
						CHANNELS 3 Zrotation Yrotation Xrotation
						JOINT LeftForeArm
						{
							OFFSET 0.259612 -0.012772 -0.027456
							CHANNELS 3 Zrotation Yrotation Xrotation
							JOINT LeftHand
							{
								OFFSET 0.249234 0.008986 -0.001171
								CHANNELS 3 Zrotation Yrotation Xrotation
								End Site
								{
									OFFSET 0.000000 0.000000 0.000000
								}
							}
						}
					}
				}
				JOINT RightShoulder
				{
					OFFSET -0.081759 0.118833 -0.038615
					CHANNELS 3 Zrotation Yrotation Xrotation
					JOINT RightArm
					{
						OFFSET -0.096012 0.032551 -0.009143
						CHANNELS 3 Zrotation Yrotation Xrotation
						JOINT RightForeArm
						{
							OFFSET -0.253742 -0.013329 -0.021401
							CHANNELS 3 Zrotation Yrotation Xrotation
							JOINT RightHand
							{
								OFFSET -0.255298 0.007772 -0.005559
								CHANNELS 3 Zrotation Yrotation Xrotation
								End Site
								{
									OFFSET 0.000000 0.000000 0.000000
								}
							}
						}
					}
				}
			}
		}
	}
}
MOTION
Frames: 8
Frame Time: 0.050000
0.022240 0.921801 -0.002090 1.931064 8.588800 6.364584 10.654315 -0.543841 -10.630097 -5.662311 0.542850 6.308769 11.619297 23.158803 13.946848 0.000000 0.000000 0.000000 -11.594725 -0.475038 -27.363789 4.532765 -0.967154 19.303255 0.745731 -2.155456 11.021792 0.000000 0.000000 0.000000 11.993836 -7.681193 38.848908 -1.195849 1.018363 -23.920929 4.936213 -2.314262 23.493314 10.576632 -5.180011 -21.230435 0.000000 0.000000 0.000000 7.641265 -22.636388 6.631967 -23.083219 -35.988126 1.835304 9.694084 -48.033019 -2.432311 0.000000 0.000000 0.000000 13.875416 24.955247 11.878144 39.139930 56.965286 13.606104 -0.563439 43.392673 1.957009 0.000000 0.000000 0.000000 
0.022900 0.921948 -0.003028 1.873150 8.987601 6.447642 10.719932 -0.563393 -11.312578 -5.574782 0.523717 6.947258 11.517444 23.054212 14.023294 0.000000 0.000000 0.000000 -11.601719 -0.521197 -27.482230 4.554470 -0.996498 19.309696 0.706734 -2.228129 11.164790 0.000000 0.000000 0.000000 11.905088 -7.690293 38.730566 -0.513723 0.866939 -23.743979 5.060681 -2.306955 23.305117 10.292216 -5.059944 -20.750298 0.000000 0.000000 0.000000 8.112106 -22.232153 6.460502 -23.050471 -36.405097 1.886521 8.697654 -49.376916 -2.063103 0.000000 0.000000 0.000000 13.748929 25.471663 12.146617 39.286569 57.190781 13.820173 -2.000825 41.722121 1.325768 0.000000 0.000000 0.000000 
0.023755 0.922273 -0.003909 1.849131 9.197384 6.514258 10.729876 -0.574709 -11.586217 -5.692696 0.536488 7.197002 11.459443 22.988118 13.753612 0.000000 0.000000 0.000000 -11.585726 -0.546499 -27.698480 4.553977 -1.008506 19.345098 0.686798 -2.364872 11.570495 0.000000 0.000000 0.000000 11.831640 -7.711050 38.785121 -0.598518 0.892220 -24.036818 5.821078 -2.630878 23.296510 9.667451 -4.801129 -20.260799 0.000000 0.000000 0.000000 8.032539 -21.872444 6.374342 -23.179224 -36.913888 2.007262 7.821912 -51.991452 -1.689030 0.000000 0.000000 0.000000 13.702901 25.953321 12.316452 38.934856 57.051947 13.570341 -2.486979 40.177607 1.051393 0.000000 0.000000 0.000000 
0.024840 0.922499 -0.004811 1.788075 9.612168 6.541656 10.674823 -0.592571 -11.728149 -5.636714 0.519489 7.157715 11.510383 23.078769 13.725984 0.000000 0.000000 0.000000 -11.652793 -0.600834 -27.595583 4.520539 -1.008056 18.978873 0.646826 -2.529588 12.064244 0.000000 0.000000 0.000000 11.924631 -7.804136 38.694803 -0.177063 0.800371 -23.937121 5.989207 -2.783858 23.140285 9.297185 -4.524007 -20.468389 0.000000 0.000000 0.000000 7.939714 -21.521866 6.303253 -23.508795 -37.187963 2.126024 6.847118 -54.339670 -1.251160 0.000000 0.000000 0.000000 13.302526 26.496502 12.498598 38.705793 56.974859 13.456341 -3.418817 38.732703 0.667799 0.000000 0.000000 0.000000 
0.026015 0.922641 -0.005807 1.712283 9.789293 6.485029 10.859816 -0.587217 -11.522718 -5.885725 0.550917 6.929399 11.646913 23.265141 13.837756 0.000000 0.000000 0.000000 -11.696953 -0.624149 -27.488683 4.546425 -1.007259 18.540943 0.543001 -2.789949 12.374358 0.000000 0.000000 0.000000 12.302180 -7.962018 38.568552 -0.267957 0.820632 -23.731426 6.180832 -2.987970 22.842188 9.242819 -4.557030 -20.147308 0.000000 0.000000 0.000000 7.617723 -21.332516 6.304983 -24.040142 -37.504140 2.319880 6.345460 -56.248811 -0.962433 0.000000 0.000000 0.000000 12.923542 26.669256 12.450503 38.556921 56.853942 13.358462 -3.045678 37.858641 0.734795 0.000000 0.000000 0.000000 
0.027023 0.922529 -0.006873 1.752986 9.940502 6.590422 10.785272 -0.598631 -11.605476 -5.826325 0.538484 6.691310 11.558157 23.159051 14.107928 0.000000 0.000000 0.000000 -11.922177 -0.694087 -27.474710 4.622411 -1.029315 18.325713 0.728304 -2.545867 12.832168 0.000000 0.000000 0.000000 12.581923 -8.070045 38.402619 -0.206742 0.806055 -23.586097 6.082266 -3.065452 22.689102 9.494131 -4.646256 -20.494107 0.000000 0.000000 0.000000 7.237425 -21.170478 6.329064 -24.682743 -37.463859 2.459815 5.774220 -57.965637 -0.638550 0.000000 0.000000 0.000000 13.063742 26.473447 12.390813 38.372767 56.891161 13.286370 -2.535620 37.586388 0.891262 0.000000 0.000000 0.000000 
0.027772 0.922236 -0.007841 1.672648 10.006691 6.612914 10.784010 -0.599890 -11.480070 -5.636700 0.510726 6.495294 11.406154 22.949664 13.859037 0.000000 0.000000 0.000000 -11.961501 -0.704916 -27.383711 4.587887 -1.019114 18.224043 0.926170 -2.091101 12.590423 0.000000 0.000000 0.000000 12.583669 -8.054341 38.271745 0.156144 0.721722 -23.527247 6.189761 -3.161715 22.631989 9.419970 -4.566714 -20.713231 0.000000 0.000000 0.000000 6.775490 -21.011616 6.357591 -25.765685 -37.390151 2.689711 4.806653 -59.026311 -0.052818 0.000000 0.000000 0.000000 12.641696 26.612660 12.344838 38.122091 56.757017 13.116671 -2.238801 38.078048 0.999016 0.000000 0.000000 0.000000 
0.028297 0.921963 -0.008688 1.709940 10.070309 6.698275 10.850285 -0.601136 -11.445118 -5.799036 0.531312 6.366799 11.484751 23.062190 14.134110 0.000000 0.000000 0.000000 -12.008161 -0.718974 -27.357628 4.387992 -0.953604 17.987415 1.396202 -1.295982 12.937672 0.000000 0.000000 0.000000 12.731950 -8.070527 38.034145 0.002088 0.755130 -23.256721 6.334109 -3.401136 22.544489 9.148361 -4.439431 -20.677232 0.000000 0.000000 0.000000 5.990435 -20.954588 6.464007 -26.417878 -37.261941 2.814346 3.907506 -59.596474 0.535704 0.000000 0.000000 0.000000 12.799257 26.651773 12.356009 37.451199 56.729665 12.748689 -1.920437 38.100676 1.090678 0.000000 0.000000 0.000000 
